<?xml version="1.0" encoding="utf-8"?>
<!-- Generator: Adobe Illustrator 25.3.0, SVG Export Plug-In . SVG Version: 6.00 Build 0)  -->
<svg version="1.1" id="Capa_1" xmlns="http://www.w3.org/2000/svg" xmlns:xlink="http://www.w3.org/1999/xlink" x="0px" y="0px"
	 viewBox="0 0 512 512" style="enable-background:new 0 0 512 512;" xml:space="preserve">
<style type="text/css">
	.st0{fill:#3D3D3D;}
	.st1{fill:#FAFAFA;}
</style>
<rect y="0" class="st0" width="512" height="512"/>
<g id="XMLID_627_">
	<g>
		<path id="XMLID_18_" class="st1" d="M486.4,320.3h-15.9c-23.7-69.1-80-123.1-150.4-143.8c-21.5,7.2-41.5,17.7-59.6,30.7
			c-4.1,2.9-8.1,6-12,9.2c-1.5,1.2-2.9,2.4-4.3,3.6c-3.8,3.3-7.5,6.8-11.1,10.3c-12.1,12-22.9,25.4-32,39.8
			c-4.2,6.7-8.1,13.6-11.6,20.7c5.5-1.7,11.1-3.1,16.9-4.2c9.2-1.8,18.7-2.7,28.4-2.7c4.3,0,8.5,0.2,12.6,0.5
			c5.2,0.4,10.3,1.1,15.3,2c5.9,1.1,11.7,2.5,17.3,4.3c1.9,0.6,3.7,1.2,5.5,1.9c-1.8-3.1-3.9-6-6.4-8.7c-3.9-4.2-8.6-7.8-13.8-10.4
			c0.2-2.1,0.3-4.2,0.3-6.3c0-3.5-0.3-7-0.8-10.3c3,1.1,5.9,2.4,8.8,3.9c7.7,4.1,14.4,9.8,19.8,16.5c5.5,6.9,9.6,15,11.8,23.8
			c1.3,4.9,1.9,10.1,1.9,15.4c0,1,0,2-0.1,3c-3.7-2.3-7.6-4.5-11.5-6.4c-1.3-0.6-2.5-1.2-3.8-1.8c-3.6-1.6-7.3-3.1-11.1-4.5
			c-7.9-2.8-16.1-4.9-24.5-6.2c-5.7-0.9-11.6-1.4-17.6-1.6c-1.2,0-2.5-0.1-3.7-0.1c-13,0-25.5,1.8-37.4,5.2
			c-5.6,1.6-11,3.5-16.3,5.8c0,0-0.1,0-0.1,0.1c-0.1,0-0.2,0.1-0.4,0.2c-5.4,2.3-10.7,5-15.7,8c-1.1,0.7-2.2,1.3-3.3,2h-0.1
			c0.4-1.2,0.8-2.5,1.2-3.7c1.7-5.2,3.5-10.3,5.5-15.3c0.3-0.8,0.7-1.6,1-2.4c11.9-28.6,29.1-54.5,50.4-76.3
			c3.8-3.9,7.7-7.7,11.7-11.3c2.2-2,4.5-4,6.8-5.9c3.9-3.2,7.9-6.4,12-9.4c13.6-9.9,28.3-18.5,43.8-25.5h0c8.3-3.7,17-7,25.8-9.8
			c8.9,2.4,17.6,5.4,26.1,8.8h0C412.5,196.1,464.5,251.6,486.4,320.3z"/>
		<g id="XMLID_17_">
			<path class="st1" d="M242.4,188.8c-4.2,3-8.3,6.2-12.2,9.5c-4-3.3-8.2-6.4-12.6-9.2c-7.8-5-16.1-9.3-24.8-12.6
				c-70.4,20.7-126.7,74.8-150.4,143.8H26.4c22-68.8,74-124.3,140.7-151c8.5-3.4,17.3-6.4,26.2-8.8c8.1,2.8,15.8,6.2,23.2,10.3
				c4.6,2.5,9.1,5.3,13.4,8.3C234.3,182.2,238.4,185.4,242.4,188.8z"/>
		</g>
	</g>
</g>
</svg>
