<?xml version="1.0" encoding="utf-8"?>
<!-- Generator: Adobe Illustrator 25.3.0, SVG Export Plug-In . SVG Version: 6.00 Build 0)  -->
<svg version="1.1" id="Capa_1" xmlns="http://www.w3.org/2000/svg" xmlns:xlink="http://www.w3.org/1999/xlink" x="0px" y="0px"
	 viewBox="0 0 512 512" style="enable-background:new 0 0 512 512;" xml:space="preserve">
<style type="text/css">
	.st0{fill:#3D3D3D;}
	.st1{fill:#FAFAFA;}
</style>
<rect y="0" class="st0" width="512" height="512"/>
<g>
	<path class="st1" d="M491.3,329.3h-15.4c-16.2-42.7-44.6-79.6-80.9-106.4c-5.6-4.1-11.4-7.9-17.3-11.6c-12.3-7.5-25.4-13.8-39-19
		c-26.7,10-51.1,24.8-72.1,43.2c-1.2,1-2.2,2-3.3,3c-2.5,2.2-4.9,4.5-7.2,6.9c-2.5,2.4-4.9,4.9-7.2,7.5
		c-12.8,13.7-23.8,28.9-33,45.3c10.8-1.8,21.8-2.8,33-3.2h3.6c1.2-0.1,2.4-0.1,3.6-0.1c2.4,0,4.9,0,7.2,0.1c2.3,0.1,4.6,0.2,6.9,0.3
		c8.8,0.5,17.5,1.4,26,2.9c-3.7-6.6-7.7-13-12-19.1c-2.8-4.1-5.7-8-8.7-11.8c3.5-3.5,7-6.9,10.7-9.9c3,3.8,5.9,7.7,8.6,11.7
		c7.3,10.4,13.9,21.4,19.6,32.8c2.8,5.6,5.4,11.3,7.7,17.1c-5.8-1.7-11.7-3.3-17.7-4.5c-13.3-2.8-27.1-4.5-41.1-4.9
		c-1.1-0.1-2.1-0.1-3.1-0.1c-1.4-0.1-2.8-0.1-4.1-0.1c-2.4,0-4.9,0.1-7.2,0.1c-2,0-3.8,0.1-5.8,0.2c-12,0.7-23.8,2.2-35.4,4.6
		c-6,1.3-12,2.8-17.7,4.5c2.3-5.8,4.9-11.4,7.7-17c12.2-24.7,28.5-47.2,47.8-66.4c1.2-1.1,2.2-2.2,3.4-3.3c2.4-2.2,4.8-4.5,7.2-6.6
		c2.4-2.2,4.8-4.2,7.2-6.2c16.4-13.5,34.6-25,54.2-34c6.9-3.2,14-6,21.2-8.5c7.2,2.5,14.3,5.4,21.2,8.5
		c13.7,6.3,26.7,13.8,38.9,22.5h0.1c6,4.1,11.7,8.5,17.3,13.3h0.1C450.1,249.7,476.3,286.9,491.3,329.3z"/>
	<path class="st1" d="M232.6,207.3c-3.6,3.3-7.2,6.7-10.6,10.2c-4.1-2.8-8.2-5.4-12.5-7.9c-11.4-6.7-23.5-12.5-36.1-17.2
		c-63.1,23.8-113.3,73.9-137.2,136.9H20.7c22.6-63.8,70.4-115.7,131.4-143.8c6.9-3.1,14-6,21.2-8.5c7.2,2.5,14.3,5.4,21.2,8.5
		c8.8,4.1,17.3,8.6,25.5,13.6C224.3,201.7,228.5,204.4,232.6,207.3z"/>
</g>
</svg>
