<svg xmlns="http://www.w3.org/2000/svg" viewBox="0 0 50.78 17.63"><defs><style>.cls-1{fill:#edf6fc;}</style></defs><g id="Capa_2" data-name="Capa 2"><g id="Capa_1-2" data-name="Capa 1"><path class="cls-1" d="M50.78,17.63H49A25.07,25.07,0,0,0,32.42,1.76a24.93,24.93,0,0,0-6.57,3.38c-.46.33-.9.67-1.33,1l-.47.4c-.42.37-.83.75-1.23,1.15a24.94,24.94,0,0,0-3.54,4.39c-.46.74-.89,1.5-1.28,2.28.61-.18,1.23-.34,1.86-.46A17.14,17.14,0,0,1,23,13.63c.47,0,.93,0,1.39,0s1.14.13,1.69.23a17.18,17.18,0,0,1,1.91.47c.21.07.41.13.61.21a4.72,4.72,0,0,0-.7-1,5.51,5.51,0,0,0-1.52-1.14c0-.23,0-.46,0-.7a7.11,7.11,0,0,0-.09-1.14,6.86,6.86,0,0,1,1,.43,7,7,0,0,1,2.19,1.82A7.07,7.07,0,0,1,31,17.24c0,.11,0,.22,0,.33-.41-.25-.84-.49-1.27-.71l-.42-.2c-.4-.18-.81-.34-1.22-.49a15.38,15.38,0,0,0-2.71-.69,15.7,15.7,0,0,0-1.95-.18H23a14.87,14.87,0,0,0-4.13.57,16,16,0,0,0-1.8.63h0l0,0a14.06,14.06,0,0,0-1.73.88l-.37.22h0c0-.13.08-.27.13-.41.18-.57.39-1.13.61-1.69l.11-.27a26.89,26.89,0,0,1,5.56-8.43c.42-.43.85-.84,1.3-1.24l.75-.65c.43-.36.87-.7,1.33-1a27,27,0,0,1,4.84-2.81h0A27.68,27.68,0,0,1,32.39,0a25,25,0,0,1,2.88,1h0A26.74,26.74,0,0,1,50.78,17.63Z"/><path class="cls-1" d="M23.84,3.11c-.46.34-.91.68-1.34,1.05a17,17,0,0,0-1.39-1,15.13,15.13,0,0,0-2.75-1.4A25.12,25.12,0,0,0,1.76,17.63H0A26.79,26.79,0,0,1,15.53,1a26,26,0,0,1,2.9-1A16.77,16.77,0,0,1,21,1.14a17.27,17.27,0,0,1,1.48.91C23,2.38,23.4,2.74,23.84,3.11Z"/></g></g></svg>