<svg width="36" height="36" viewBox="0 0 36 36" fill="none" xmlns="http://www.w3.org/2000/svg">
<rect x="0.5" y="0.5" width="35" height="35" rx="5.1" stroke="#A3A3A3"/>
<path d="M10 12.64H14.592C15.52 12.64 16.2453 12.9013 16.768 13.424C17.3013 13.9467 17.568 14.6453 17.568 15.52C17.568 15.936 17.5093 16.288 17.392 16.576C17.2747 16.864 17.1253 17.104 16.944 17.296C16.7627 17.4773 16.5653 17.616 16.352 17.712C16.1387 17.7973 15.9413 17.856 15.76 17.888V17.984C15.9627 17.9947 16.1867 18.048 16.432 18.144C16.688 18.24 16.928 18.3947 17.152 18.608C17.376 18.8107 17.5627 19.0773 17.712 19.408C17.872 19.728 17.952 20.1173 17.952 20.576C17.952 21.0347 17.8773 21.4613 17.728 21.856C17.5893 22.2507 17.392 22.592 17.136 22.88C16.88 23.168 16.576 23.3973 16.224 23.568C15.872 23.728 15.488 23.808 15.072 23.808H10V12.64ZM11.344 22.624H14.656C15.232 22.624 15.6853 22.48 16.016 22.192C16.3467 21.8933 16.512 21.4613 16.512 20.896V20.352C16.512 19.7867 16.3467 19.36 16.016 19.072C15.6853 18.7733 15.232 18.624 14.656 18.624H11.344V22.624ZM11.344 17.472H14.432C14.9653 17.472 15.3813 17.3387 15.68 17.072C15.9787 16.8053 16.128 16.4213 16.128 15.92V15.376C16.128 14.8747 15.9787 14.4907 15.68 14.224C15.3813 13.9573 14.9653 13.824 14.432 13.824H11.344V17.472Z" fill="#A3A3A3"/>
<path d="M23.4291 24C22.8638 24 22.3518 23.8987 21.8931 23.696C21.4451 23.4933 21.0558 23.2053 20.7251 22.832C20.4051 22.448 20.1545 21.9947 19.9731 21.472C19.8025 20.9387 19.7171 20.3413 19.7171 19.68C19.7171 19.0293 19.8025 18.4373 19.9731 17.904C20.1545 17.3707 20.4051 16.9173 20.7251 16.544C21.0558 16.16 21.4451 15.8667 21.8931 15.664C22.3518 15.4613 22.8638 15.36 23.4291 15.36C23.9838 15.36 24.4798 15.4613 24.9171 15.664C25.3545 15.8667 25.7278 16.1493 26.0371 16.512C26.3465 16.864 26.5811 17.2853 26.7411 17.776C26.9118 18.2667 26.9971 18.8053 26.9971 19.392V20H21.0611V20.384C21.0611 20.736 21.1145 21.0667 21.2211 21.376C21.3385 21.6747 21.4985 21.936 21.7011 22.16C21.9145 22.384 22.1705 22.56 22.4691 22.688C22.7785 22.816 23.1251 22.88 23.5091 22.88C24.0318 22.88 24.4851 22.7573 24.8691 22.512C25.2638 22.2667 25.5678 21.9147 25.7811 21.456L26.6931 22.112C26.4265 22.6773 26.0105 23.136 25.4451 23.488C24.8798 23.8293 24.2078 24 23.4291 24ZM23.4291 16.432C23.0771 16.432 22.7571 16.496 22.4691 16.624C22.1811 16.7413 21.9305 16.912 21.7171 17.136C21.5145 17.36 21.3545 17.6267 21.2371 17.936C21.1198 18.2347 21.0611 18.5653 21.0611 18.928V19.04H25.6211V18.864C25.6211 18.128 25.4185 17.5413 25.0131 17.104C24.6185 16.656 24.0905 16.432 23.4291 16.432Z" fill="#A3A3A3"/>
<path fill-rule="evenodd" clip-rule="evenodd" d="M26.512 14.808H19.512V13.808H26.512V14.808Z" fill="#A3A3A3"/>
</svg>
