<svg width="36" height="36" viewBox="0 0 36 36" fill="none" xmlns="http://www.w3.org/2000/svg">
<rect x="0.5" y="0.5" width="35" height="35" rx="5.1" stroke="#A3A3A3"/>
<path d="M26 24H24V15.25L18 19L12 15.25V24H10V12H11.2L18 16.25L24.8 12H26M26 10H10C8.89 10 8 10.89 8 12V24C8 24.5304 8.21071 25.0391 8.58579 25.4142C8.96086 25.7893 9.46957 26 10 26H26C26.5304 26 27.0391 25.7893 27.4142 25.4142C27.7893 25.0391 28 24.5304 28 24V12C28 11.4696 27.7893 10.9609 27.4142 10.5858C27.0391 10.2107 26.5304 10 26 10Z" fill="#A3A3A3"/>
</svg>
