<svg width="36" height="36" viewBox="0 0 36 36" fill="none" xmlns="http://www.w3.org/2000/svg">
<rect x="0.5" y="0.5" width="35" height="35" rx="5.1" stroke="#A3A3A3"/>
<path d="M13 13.808C12.7227 13.808 12.52 13.744 12.392 13.616C12.2747 13.4773 12.216 13.3013 12.216 13.088V12.88C12.216 12.6666 12.2747 12.496 12.392 12.368C12.52 12.2293 12.7227 12.16 13 12.16C13.2773 12.16 13.4747 12.2293 13.592 12.368C13.72 12.496 13.784 12.6666 13.784 12.88V13.088C13.784 13.3013 13.72 13.4773 13.592 13.616C13.4747 13.744 13.2773 13.808 13 13.808ZM12.36 15.744H13.64V24H12.36V15.744Z" fill="#A3A3A3"/>
<path d="M16.36 24V15.744H17.64V17.088H17.704C17.9067 16.6186 18.1893 16.2453 18.552 15.968C18.9253 15.6906 19.4213 15.552 20.04 15.552C20.8933 15.552 21.5653 15.8293 22.056 16.384C22.5573 16.928 22.808 17.7013 22.808 18.704V24H21.528V18.928C21.528 17.4453 20.904 16.704 19.656 16.704C19.4 16.704 19.1493 16.736 18.904 16.8C18.6693 16.864 18.456 16.96 18.264 17.088C18.072 17.216 17.9173 17.3813 17.8 17.584C17.6933 17.776 17.64 18.0053 17.64 18.272V24H16.36Z" fill="#A3A3A3"/>
</svg>
